<?xml version="1.0" encoding="UTF-8"?> <svg xmlns="http://www.w3.org/2000/svg" width="306" height="64" viewBox="0 0 306 64" fill="none"><path fill-rule="evenodd" clip-rule="evenodd" d="M1 29.272C1 15.847 14.25 1.639 35.136 1.016c2.42-.072 5.984.098 8.105.57a32.773 32.773 0 0 0-2.505-.094C23.13 1.492 7.235 16.115 7.235 29.54c0 13.426 11.581 20.568 29.189 20.568a55.44 55.44 0 0 0 3.336-.1c-2.647.48-5.417.731-8.264.731C13.887 50.74 1 42.697 1 29.273Z" fill="#84BF41"></path><path clip-rule="evenodd" d="M1 29.272C1 15.847 14.25 1.639 35.136 1.016c2.42-.072 5.984.098 8.105.57a32.773 32.773 0 0 0-2.505-.094C23.13 1.492 7.235 16.115 7.235 29.54c0 13.426 11.581 20.568 29.189 20.568a55.44 55.44 0 0 0 3.336-.1c-2.647.48-5.417.731-8.264.731C13.887 50.74 1 42.697 1 29.273Z" stroke="#84BF41" stroke-width=".264"></path><path fill-rule="evenodd" clip-rule="evenodd" d="M43.953 1.558c.716-.05 1.465-.075 2.25-.075 19.025 0 39.59 13.925 39.59 31.486 0 17.563-17.448 30.552-36.473 30.552-7.136 0-17.457-2.028-18.704-12.159 2.494 7.95 10.668 10.287 16.21 10.287 19.024 0 32.733-11.429 32.733-28.992 0-16.816-17.324-30.001-35.606-31.1Z" fill="#005394"></path><path clip-rule="evenodd" d="M43.953 1.558c.716-.05 1.465-.075 2.25-.075 19.025 0 39.59 13.925 39.59 31.486 0 17.563-17.448 30.552-36.473 30.552-7.136 0-17.457-2.028-18.704-12.159 2.494 7.95 10.668 10.287 16.21 10.287 19.024 0 32.733-11.429 32.733-28.992 0-16.816-17.324-30.001-35.606-31.1Z" stroke="#005394" stroke-width=".264"></path><path fill-rule="evenodd" clip-rule="evenodd" d="M17.776 31.914h4.252c.425 0 .524-.075.524-.525v-1.65c0-.45-.074-.526-.524-.526h-4.252v-4.125h4.852c.199 0 .474-.026.575-.4l.474-1.676c.05-.175.075-.225.075-.35 0-.225-.124-.275-.624-.275h-8.202c-.425 0-.524.076-.524.525V38.99c0 .45.1.525.524.525h2.35c.425 0 .5-.075.5-.525v-7.076ZM27 34.94h4.3l1.1 4.05c.126.45.175.525.425.525h2.801c.25 0 .5-.05.5-.2 0-.1-.075-.3-.1-.4l-4.901-16.128c-.1-.299-.15-.4-.525-.4H28c-.425 0-.45.05-.55.375l-4.926 16.104c-.025.099-.1.299-.1.425.025.175.175.224.5.224h2.525c.375 0 .425-.075.526-.525l1.024-4.05Zm3.675-2.25h-3.3l1.1-4.302c.25-1 .474-2.45.575-3.5h.05c.125 1.05.325 2.525.55 3.5l1.025 4.301ZM38.197 22.387c-.425 0-.525.076-.525.525V38.99c0 .425.1.525.525.525h4.1c3.226 0 6.202-.675 6.202-4.85 0-2.876-1.951-3.801-3.126-4.127.95-.475 2.55-1.274 2.55-3.774 0-4.027-3.4-4.377-5.825-4.377h-3.901Zm2.851 14.503V32.09h.95c1.675 0 3.125.275 3.125 2.375 0 2.125-1.45 2.426-3.175 2.426h-.9Zm0-7.427v-4.45h1.05c1.375 0 2.45.525 2.45 2.1 0 1.975-1.25 2.35-2.725 2.35h-.775ZM51.07 22.387c-.425 0-.525.076-.525.525V38.99c0 .425.1.525.526.525h4.1c3.225 0 6.2-.675 6.2-4.85 0-2.876-1.949-3.801-3.125-4.127.951-.475 2.551-1.274 2.551-3.774 0-4.027-3.4-4.377-5.826-4.377h-3.9Zm2.852 14.503V32.09h.95c1.674 0 3.124.275 3.124 2.375 0 2.125-1.45 2.426-3.175 2.426h-.9Zm0-7.427v-4.45h1.049c1.376 0 2.45.525 2.45 2.1 0 1.975-1.25 2.35-2.725 2.35h-.774ZM73.394 23.862c.101-.2.126-.3.126-.374 0-.425-2.45-1.525-4.826-1.525-2.9 0-5.5 1.5-5.5 5.1 0 2.076.85 3.076 2.174 3.876 2.551 1.55 5.102 1.775 5.102 4 0 1.55-.852 2.301-2.25 2.301-2.15 0-4.001-1.1-4.151-1.1-.1 0-.226.1-.275.25l-.576 1.65c-.05.15-.125.325-.125.4 0 .4 2.676 1.5 5.226 1.5 3.15 0 5.401-2.1 5.401-5.275 0-1.902-.875-3.226-2.15-4.176-2.2-1.625-5.126-1.975-5.126-3.877 0-1.499 1.2-1.949 2.35-1.949 1.8 0 3.35 1.1 3.501 1.1.1 0 .2-.1.275-.25l.825-1.65ZM97.516 43.694V39.2h1.68c1.261 0 2.468.493 2.468 2.265 0 1.809-1.189 2.229-2.376 2.229h-1.772Zm0-5.719v-4.237h1.68c1.078 0 2.028.237 2.028 1.863 0 2.138-1.351 2.374-2.41 2.374h-1.298Zm-1.279-5.515c-.146 0-.22.072-.22.22v12.072c0 .146.074.22.22.22h2.669c1.46 0 2.483-.09 3.195-.694.44-.384 1.206-1.243 1.206-2.759 0-2.227-1.315-2.83-2.247-3.104.604-.31 1.807-1.06 1.807-2.979 0-2.832-2.263-2.976-3.633-2.976h-2.996ZM111.563 43.364c-.036-.055-.054-.108-.109-.108-.109 0-1.061.748-2.248.748-2.082 0-2.52-2.009-2.52-3.123h5.242c.201 0 .201-.146.201-.402 0-1.572-.273-4.531-3.323-4.531-2.266 0-3.618 1.954-3.618 4.64 0 2.776 1.425 4.622 3.855 4.64 1.35 0 2.885-.75 2.885-.95 0-.055-.036-.09-.054-.147l-.311-.767Zm-4.877-3.617c0-.913.365-2.666 2.046-2.666 1.59 0 1.899 1.716 1.899 2.666h-3.945ZM114.413 44.752c0 .146.073.22.22.22h.949c.147 0 .219-.074.219-.22v-6.466c.457-.402 1.279-1.114 2.466-1.114.986 0 1.188.694 1.188 1.48v6.1c0 .146.071.22.219.22h.948c.147 0 .221-.074.221-.22V38.69c0-1.317-.147-2.741-2.174-2.741-1.333 0-2.283.767-2.868 1.242v-5.206c0-.092 0-.237-.128-.237-.129.018-.073 0-.219.037l-.912.219c-.073.017-.129.091-.129.218v12.531ZM127.988 42.962c-.292.256-1.135 1.134-2.084 1.134-.933 0-1.336-.822-1.336-1.554 0-1.917 2.615-1.917 3.42-1.936v2.356Zm1.391-4.456c0-1.535-.714-2.558-2.817-2.558-1.171 0-2.852.53-2.852.84 0 .092.018.146.055.238l.237.64a.138.138 0 0 0 .129.091c.164 0 1.002-.584 2.229-.584 1.298 0 1.628.584 1.628 1.643v.657c-1.135.039-4.789.092-4.789 3.18 0 1.626.932 2.574 2.375 2.574 1.518 0 2.414-1.022 2.633-1.222.091.255.42 1.222.696 1.222.036 0 .073-.017.146-.054l.715-.439c.073-.035.164-.073.164-.144 0-.112-.256-.459-.33-.677-.166-.512-.219-.676-.219-1.826v-3.58ZM138.775 36.605c0-.035.038-.073.038-.127 0-.072-.038-.09-.164-.128l-.896-.238c-.055 0-.109-.035-.182-.035s-.073.073-.129.146l-2.157 5.954a6.522 6.522 0 0 0-.326 1.132h-.038c-.091-.347-.201-.767-.33-1.15l-2.029-5.936c-.055-.073-.055-.146-.129-.146-.073 0-.129.035-.182.035l-.896.238c-.129.037-.164.056-.164.128 0 .054.035.092.035.127l3.072 8.331c.038.091.056.164.22.164h.714c.164 0 .182-.037.238-.164l3.305-8.33ZM142.74 32.989c0-.602-.494-1.114-1.114-1.114-.622 0-1.114.492-1.114 1.114 0 .622.492 1.115 1.114 1.115a1.12 1.12 0 0 0 1.114-1.115Zm-.33 3.49c0-.165-.035-.276-.237-.276h-2.575c-.147 0-.22.073-.22.22v.694c0 .147.073.22.22.22h1.425v7.415c0 .146.072.22.218.22h.95c.146 0 .219-.074.219-.22v-8.274ZM148.274 44.096c-1.68 0-2.155-1.554-2.155-3.635 0-1.81.494-3.38 2.137-3.38 1.645 0 2.139 1.643 2.139 3.433 0 2.101-.494 3.582-2.121 3.582Zm3.617-3.562c0-2.577-1.059-4.586-3.562-4.586-2.648 0-3.708 2.156-3.708 4.677 0 2.612 1.06 4.602 3.526 4.602 2.666 0 3.744-2.136 3.744-4.693ZM155.764 38.724c.438-.473 1.078-1.424 1.716-1.424.347 0 .512.164.603.164.073 0 .091-.091.111-.127l.401-.931c.019-.056.054-.111.054-.148 0-.164-.475-.31-.894-.31-1.059 0-1.718 1.023-2.192 1.534-.073-.4-.384-1.534-.713-1.534-.036 0-.109.037-.182.091l-.676.42a.248.248 0 0 0-.126.184c0 .054.052.201.2.457.255.455.31 1.058.31 1.387v6.265c0 .146.072.22.218.22h.95c.146 0 .22-.074.22-.22v-6.028ZM163.875 42.962c-.294.256-1.134 1.134-2.084 1.134-.931 0-1.333-.822-1.333-1.554 0-1.917 2.612-1.917 3.417-1.936v2.356Zm1.387-4.456c0-1.535-.712-2.558-2.813-2.558-1.169 0-2.85.53-2.85.84 0 .092.02.146.056.238l.238.64a.138.138 0 0 0 .126.091c.165 0 1.005-.584 2.23-.584 1.297 0 1.626.584 1.626 1.643v.657c-1.134.039-4.787.092-4.787 3.18 0 1.626.931 2.574 2.374 2.574 1.517 0 2.413-1.022 2.633-1.222.09.255.418 1.222.693 1.222.035 0 .073-.017.145-.054l.713-.439c.074-.035.165-.073.165-.144 0-.112-.256-.459-.329-.677-.164-.512-.22-.676-.22-1.826v-3.58ZM171.327 43.967c-.018-.054-.018-.109-.129-.109-.126 0-.473.238-.949.238-.529 0-.695-.44-.73-.64-.038-.219-.055-1.15-.055-1.717v-9.755c0-.092 0-.237-.129-.237-.127.018-.072 0-.218.037l-.914.219c-.073.017-.129.091-.129.218v9.48c0 .64 0 2.047.258 2.65.218.512.821.876 1.717.876.676 0 1.551-.256 1.551-.456a.366.366 0 0 0-.035-.129l-.238-.675ZM184.294 43.018c-.385.329-1.206.986-2.504.986-1.46 0-2.41-.822-2.41-2.173 0-1.555 1.243-2.358 1.643-2.668l3.271 3.855Zm-4.182-8.02c0-1.078.84-1.662 1.661-1.662.822 0 1.552.566 1.552 1.662 0 1.426-1.297 2.283-1.826 2.668-.22-.256-1.387-1.516-1.387-2.668Zm5.954 7.891c.328-.457 1.058-1.608 1.058-3.233 0-.2-.036-.291-.218-.291h-.896c-.144 0-.218.053-.218.218v.237c0 1.079-.347 1.81-.549 2.12l-3.012-3.489c.675-.459 2.483-1.534 2.483-3.562 0-1.863-1.352-2.686-2.759-2.686-1.496 0-3.233.913-3.233 2.942 0 1.478 1.317 2.94 1.571 3.25-.53.367-2.411 1.334-2.411 3.544 0 1.863 1.389 3.288 3.764 3.288 1.862 0 2.885-.895 3.397-1.314l1.004 1.187c.054.054.145.127.237.127a.439.439 0 0 0 .237-.073l.732-.603c.056-.035.091-.073.091-.127 0-.054-.056-.11-.091-.146l-1.187-1.389ZM196.657 43.694V39.2h1.682c1.26 0 2.465.493 2.465 2.265 0 1.809-1.188 2.229-2.374 2.229h-1.773Zm0-5.719v-4.237h1.682c1.077 0 2.027.237 2.027 1.863 0 2.138-1.352 2.374-2.412 2.374h-1.297Zm-1.278-5.515c-.147 0-.22.072-.22.22v12.072c0 .146.073.22.22.22h2.666c1.463 0 2.486-.09 3.197-.694.438-.384 1.206-1.243 1.206-2.759 0-2.227-1.315-2.83-2.246-3.104.602-.31 1.807-1.06 1.807-2.979 0-2.832-2.266-2.976-3.635-2.976h-2.995ZM206.503 38.724c.439-.473 1.078-1.424 1.718-1.424.347 0 .511.164.603.164.073 0 .091-.091.108-.127l.403-.931c.017-.056.053-.111.053-.148 0-.164-.473-.31-.893-.31-1.061 0-1.717 1.023-2.193 1.534-.073-.4-.385-1.534-.714-1.534-.035 0-.108.037-.181.091l-.676.42a.246.246 0 0 0-.127.184c0 .054.055.201.2.457.256.455.311 1.058.311 1.387v6.265c0 .146.074.22.22.22h.95c.144 0 .218-.074.218-.22v-6.028ZM214.613 42.962c-.291.256-1.131 1.134-2.081 1.134-.932 0-1.334-.822-1.334-1.554 0-1.917 2.612-1.917 3.415-1.936v2.356Zm1.389-4.456c0-1.535-.713-2.558-2.814-2.558-1.168 0-2.848.53-2.848.84 0 .092.017.146.054.238l.237.64a.139.139 0 0 0 .129.091c.164 0 1.003-.584 2.227-.584 1.297 0 1.626.584 1.626 1.643v.657c-1.131.039-4.785.092-4.785 3.18 0 1.626.932 2.574 2.375 2.574 1.516 0 2.41-1.022 2.63-1.222.091.255.421 1.222.694 1.222.035 0 .073-.017.147-.054l.711-.439c.073-.035.164-.073.164-.144 0-.112-.255-.459-.328-.677-.165-.512-.219-.676-.219-1.826v-3.58ZM221.245 32.989c0-.602-.493-1.114-1.116-1.114-.62 0-1.114.492-1.114 1.114 0 .622.494 1.115 1.114 1.115a1.12 1.12 0 0 0 1.116-1.115Zm-.329 3.49c0-.165-.037-.276-.238-.276h-2.577c-.144 0-.218.073-.218.22v.694c0 .147.074.22.218.22h1.426v7.415c0 .146.073.22.219.22h.95c.147 0 .22-.074.22-.22v-8.274ZM230.487 38.689c0-1.316-.146-2.741-2.174-2.741-1.387 0-2.337.767-2.942 1.242-.017-.146-.235-1.242-.564-1.242-.056 0-.112.055-.147.073l-.822.458c-.074.053-.092.091-.092.127 0 .09.147.22.294.767.073.274.073.476.073 1.078v6.301c0 .146.071.22.218.22h.95c.146 0 .219-.074.219-.22v-6.466c.457-.402 1.223-1.113 2.41-1.113.988 0 1.19.693 1.19 1.478v6.101c0 .146.072.22.218.22h.95c.146 0 .219-.074.219-.22V38.69ZM244.806 33.409c.017-.073.073-.165.073-.219 0-.054-.056-.147-.146-.201-.256-.128-1.426-.786-2.886-.786-1.899 0-3.635 1.17-3.635 3.27 0 3.78 5.333 3.324 5.333 6.358 0 1.222-.802 2.082-2.174 2.082-1.279 0-2.392-.604-2.757-.768a.555.555 0 0 0-.256-.092c-.111 0-.146.092-.202.238l-.236.603c-.02.073-.074.164-.074.22 0 .091.054.164.145.2.275.129 1.627.913 3.326.913 2.228 0 3.871-1.352 3.871-3.58 0-1.206-.492-2.064-1.478-2.867-1.461-1.206-3.853-1.552-3.853-3.47 0-1.226.838-1.79 1.934-1.79 1.042 0 1.974.455 2.321.637a.53.53 0 0 0 .256.092c.126 0 .126-.092.199-.238l.239-.602ZM252.825 43.364c-.038-.055-.056-.108-.109-.108-.111 0-1.06.748-2.248.748-1.771 0-2.1-1.753-2.1-3.416 0-2.082.528-3.415 2.321-3.415 1.075 0 1.863.931 1.934.931.056 0 .073-.056.11-.111l.421-.764c.018-.056.053-.094.053-.148 0-.275-1.405-1.133-2.63-1.133-2.246 0-3.708 1.863-3.708 4.914 0 2.667 1.26 4.365 3.435 4.365 1.352 0 2.886-.749 2.886-.948 0-.056-.036-.092-.056-.148l-.309-.767ZM257.445 32.989c0-.602-.492-1.114-1.114-1.114-.62 0-1.113.492-1.113 1.114 0 .622.493 1.115 1.113 1.115.622 0 1.114-.513 1.114-1.115Zm-.326 3.49c0-.165-.039-.276-.239-.276h-2.576c-.145 0-.219.073-.219.22v.694c0 .147.074.22.219.22h1.424v7.415c0 .146.074.22.221.22h.949c.147 0 .221-.074.221-.22v-8.274ZM265.537 43.364c-.035-.055-.052-.108-.108-.108-.109 0-1.061.748-2.248.748-2.081 0-2.521-2.009-2.521-3.123h5.243c.202 0 .202-.146.202-.402 0-1.572-.273-4.531-3.324-4.531-2.266 0-3.618 1.954-3.618 4.64 0 2.776 1.426 4.622 3.854 4.64 1.351 0 2.886-.75 2.886-.95 0-.055-.036-.09-.054-.147l-.312-.767Zm-4.877-3.617c0-.913.367-2.666 2.047-2.666 1.588 0 1.9 1.716 1.9 2.666h-3.947ZM274.818 38.689c0-1.316-.147-2.741-2.175-2.741-1.387 0-2.338.767-2.941 1.242-.018-.146-.235-1.242-.565-1.242-.055 0-.111.055-.146.073l-.823.458c-.073.053-.091.091-.091.127 0 .09.147.22.293.767.074.274.074.476.074 1.078v6.301c0 .146.071.22.218.22h.949c.147 0 .22-.074.22-.22v-6.466c.456-.402 1.223-1.113 2.41-1.113.988 0 1.188.693 1.188 1.478v6.101c0 .146.073.22.22.22h.949c.147 0 .22-.074.22-.22V38.69ZM282.964 43.364c-.036-.055-.053-.108-.109-.108-.108 0-1.06.748-2.248.748-1.771 0-2.098-1.753-2.098-3.416 0-2.082.528-3.415 2.319-3.415 1.077 0 1.863.931 1.936.931.056 0 .073-.056.109-.111l.421-.764c.017-.056.054-.094.054-.148 0-.275-1.406-1.133-2.63-1.133-2.247 0-3.708 1.863-3.708 4.914 0 2.667 1.26 4.365 3.433 4.365 1.352 0 2.888-.749 2.888-.948 0-.056-.037-.092-.056-.148l-.311-.767ZM290.928 43.364c-.036-.055-.054-.108-.109-.108-.109 0-1.058.748-2.247.748-2.082 0-2.52-2.009-2.52-3.123h5.242c.201 0 .201-.146.201-.402 0-1.572-.274-4.531-3.324-4.531-2.265 0-3.617 1.954-3.617 4.64 0 2.776 1.425 4.622 3.855 4.64 1.352 0 2.885-.75 2.885-.95 0-.055-.037-.09-.054-.147l-.312-.767Zm-4.876-3.617c0-.913.365-2.666 2.046-2.666 1.589 0 1.898 1.716 1.898 2.666h-3.944ZM298.18 36.917c.018-.073.074-.129.074-.183 0-.091-.056-.164-.201-.237-.475-.256-1.535-.55-2.157-.55-1.606 0-2.758 1.061-2.758 2.54 0 2.76 4.055 2.338 4.055 4.238 0 .878-.675 1.315-1.461 1.315-1.24 0-2.192-.64-2.356-.64-.054 0-.109.038-.165.165l-.255.566c-.036.074-.071.13-.071.22 0 .366 1.898.876 2.774.876 1.572 0 2.924-.875 2.924-2.593 0-2.85-4.055-2.284-4.055-4.292 0-.84.62-1.207 1.351-1.207.949 0 1.716.493 1.845.493.11 0 .145-.073.218-.218l.238-.493ZM97.498 22.325h3.58c.202 0 .238-.036.238-.238v-.803c0-.201-.036-.239-.238-.239h-3.58v-4.054h4.055c.091 0 .129 0 .183-.038.073-.053.073-.09.091-.125l.256-.769.055-.22c0-.073-.037-.127-.238-.127h-5.68c-.147 0-.22.073-.22.22v12.074c0 .146.073.219.22.219h1.022c.2 0 .256-.037.256-.256v-5.644ZM109.19 26.617c-.038-.054-.056-.108-.111-.108-.11 0-1.06.747-2.247.747-2.081 0-2.521-2.009-2.521-3.123h5.243c.201 0 .201-.146.201-.402 0-1.57-.274-4.53-3.324-4.53-2.266 0-3.618 1.955-3.618 4.64 0 2.776 1.426 4.621 3.855 4.64 1.351 0 2.886-.75 2.886-.95 0-.055-.037-.09-.055-.146l-.309-.768Zm-4.879-3.615c0-.915.366-2.67 2.047-2.67 1.588 0 1.899 1.719 1.899 2.67h-3.946ZM118.121 15.238c0-.092 0-.238-.146-.238-.128.018-.073 0-.219.037l-.896.219c-.073.019-.128.092-.128.22v4.346c-.492-.31-1.114-.62-2.246-.62-2.119 0-3.051 2.192-3.051 4.823 0 2.264.895 4.456 2.849 4.456 1.354 0 2.248-.766 2.686-1.077.073.29.402 1.077.658 1.077.036 0 .073-.019.147-.054l.711-.438c.073-.037.165-.075.165-.148 0-.11-.238-.456-.329-.675-.201-.458-.201-1.006-.201-1.827V15.238Zm-1.389 10.941c-.438.274-1.24 1.077-2.191 1.077-1.48 0-1.608-1.735-1.608-3.269 0-1.772.147-3.562 1.717-3.562.914 0 1.499.293 2.082.604v5.15ZM126.451 26.617c-.035-.054-.053-.108-.109-.108-.109 0-1.061.747-2.249.747-2.081 0-2.52-2.009-2.52-3.123h5.245c.2 0 .2-.146.2-.402 0-1.57-.273-4.53-3.326-4.53-2.265 0-3.617 1.955-3.617 4.64 0 2.776 1.425 4.621 3.854 4.64 1.352 0 2.889-.75 2.889-.95 0-.055-.036-.09-.056-.146l-.311-.768Zm-4.878-3.615c0-.915.366-2.67 2.046-2.67 1.589 0 1.901 1.719 1.901 2.67h-3.947ZM130.713 21.977c.44-.474 1.08-1.423 1.72-1.423.347 0 .511.164.603.164.073 0 .091-.092.11-.128l.403-.931c.018-.056.056-.11.056-.147 0-.165-.478-.31-.896-.31-1.063 0-1.72 1.022-2.196 1.534-.073-.403-.385-1.535-.714-1.535-.035 0-.109.036-.182.093l-.678.419a.247.247 0 0 0-.127.182c0 .055.056.201.2.457.256.457.311 1.06.311 1.39v6.264c0 .146.073.219.221.219h.95c.148 0 .219-.073.219-.22v-6.028ZM138.831 26.217c-.293.254-1.133 1.131-2.083 1.131-.932 0-1.334-.822-1.334-1.553 0-1.919 2.612-1.919 3.417-1.935v2.357Zm1.387-4.458c0-1.535-.711-2.558-2.812-2.558-1.17 0-2.852.53-2.852.841 0 .09.018.146.056.237l.237.64a.137.137 0 0 0 .129.09c.164 0 1.005-.584 2.229-.584 1.297 0 1.626.585 1.626 1.643v.659c-1.133.037-4.789.091-4.789 3.178 0 1.626.934 2.576 2.377 2.576 1.516 0 2.412-1.023 2.63-1.225.092.256.42 1.225.695 1.225.037 0 .073-.019.146-.054l.713-.439c.073-.036.164-.074.164-.147 0-.11-.255-.456-.328-.676-.165-.511-.221-.675-.221-1.826v-3.58ZM147.836 26.872c0-.053-.054-.108-.127-.108-.165 0-.896.492-1.754.492-1.096 0-1.096-.747-1.096-1.479v-5.186h2.411a.26.26 0 0 0 .237-.166l.237-.712c0-.054.019-.091.019-.128 0-.11-.092-.127-.2-.127h-2.704v-2.814c0-.108 0-.2-.091-.2-.036 0-.074.018-.129.018l-.967.273c-.127.037-.201.111-.201.219v2.504H142.1c-.127 0-.127.09-.127.218v.695c0 .09 0 .22.127.22h1.371v5.186c0 .676 0 1.498.53 2.065.273.347.931.639 1.716.639.987 0 2.356-.512 2.356-.749 0-.055-.017-.11-.035-.183l-.202-.677ZM151.891 16.242a1.12 1.12 0 0 0-1.114-1.115c-.621 0-1.114.494-1.114 1.115s.493 1.114 1.114 1.114c.621 0 1.114-.51 1.114-1.114Zm-.329 3.489c0-.164-.036-.273-.238-.273h-2.575c-.146 0-.219.072-.219.218v.694c0 .146.073.22.219.22h1.426v7.416c0 .146.073.219.22.219h.949c.145 0 .218-.073.218-.22v-8.274ZM157.427 27.348c-1.681 0-2.157-1.553-2.157-3.635 0-1.808.494-3.38 2.137-3.38 1.645 0 2.138 1.644 2.138 3.435 0 2.1-.493 3.58-2.118 3.58Zm3.617-3.562c0-2.576-1.06-4.585-3.564-4.585-2.647 0-3.708 2.156-3.708 4.675 0 2.613 1.061 4.605 3.526 4.605 2.668 0 3.746-2.138 3.746-4.695ZM169.939 21.942c0-1.316-.146-2.74-2.173-2.74-1.388 0-2.34.766-2.942 1.241-.018-.145-.238-1.242-.567-1.242-.053 0-.109.055-.145.073l-.822.457c-.074.054-.091.091-.091.127 0 .092.146.22.291.768.073.274.073.476.073 1.078v6.302c0 .146.073.219.22.219h.949c.147 0 .22-.073.22-.22V21.54c.457-.4 1.223-1.114 2.411-1.114.987 0 1.187.694 1.187 1.48v6.1c0 .147.073.22.22.22h.95c.146 0 .219-.073.219-.22v-6.063ZM181.445 27.348c-1.68 0-2.156-1.553-2.156-3.635 0-1.808.494-3.38 2.137-3.38 1.645 0 2.138 1.644 2.138 3.435 0 2.1-.493 3.58-2.119 3.58Zm3.616-3.562c0-2.576-1.059-4.585-3.562-4.585-2.648 0-3.708 2.156-3.708 4.675 0 2.613 1.06 4.605 3.525 4.605 2.668 0 3.745-2.138 3.745-4.695ZM188.916 20.59h2.338a.26.26 0 0 0 .237-.165l.237-.712c0-.054.018-.091.018-.128 0-.11-.091-.127-.201-.127h-2.629V18.05c0-1.058.073-1.825 1.096-1.825.767 0 1.278.384 1.589.384.054 0 .092-.055.127-.11l.256-.603c.037-.129.091-.2.091-.255 0-.275-1.169-.64-2.008-.64-2.265 0-2.539 1.662-2.539 3.032v1.426h-1.28c-.127 0-.127.09-.127.218v.694c0 .092 0 .22.127.22h1.28v7.416c0 .146.072.219.218.219h.95c.146 0 .22-.073.22-.22v-7.414ZM202.704 15.914c-.073-.202-.127-.202-.273-.202h-1.078c-.202 0-.22.02-.275.202l-3.654 11.89c-.052.129-.073.22-.091.312 0 .09.074.109.256.109h1.134c.217 0 .292-.073.327-.201l.934-3.526h3.743l1.023 3.526c.036.128.11.2.329.2h1.133c.181 0 .254-.017.254-.108-.017-.092-.054-.183-.09-.312l-3.672-11.89Zm.676 7.306h-3.049l1.113-4.037c.127-.492.31-1.297.383-1.735h.037c.091.511.274 1.169.42 1.735l1.096 4.037ZM212.588 20.17c.017-.074.071-.128.071-.183 0-.092-.054-.165-.2-.238-.474-.255-1.535-.548-2.155-.548-1.607 0-2.759 1.06-2.759 2.54 0 2.758 4.055 2.337 4.055 4.238 0 .877-.676 1.314-1.46 1.314-1.243 0-2.193-.64-2.357-.64-.055 0-.109.039-.165.165l-.256.567c-.037.073-.073.127-.073.22 0 .364 1.901.876 2.777.876 1.57 0 2.921-.876 2.921-2.594 0-2.849-4.055-2.284-4.055-4.294 0-.838.622-1.203 1.352-1.203.952 0 1.719.492 1.846.492.111 0 .146-.073.219-.22l.239-.493ZM219.693 20.17c.018-.074.071-.128.071-.183 0-.092-.053-.165-.2-.238-.473-.255-1.534-.548-2.154-.548-1.607 0-2.759 1.06-2.759 2.54 0 2.758 4.055 2.337 4.055 4.238 0 .877-.676 1.314-1.46 1.314-1.244 0-2.193-.64-2.358-.64-.055 0-.11.039-.164.165l-.256.567c-.037.073-.073.127-.073.22 0 .364 1.899.876 2.777.876 1.569 0 2.921-.876 2.921-2.594 0-2.849-4.055-2.284-4.055-4.294 0-.838.622-1.203 1.352-1.203.952 0 1.719.492 1.846.492.108 0 .146-.073.219-.22l.238-.493ZM225.447 27.348c-1.681 0-2.156-1.553-2.156-3.635 0-1.808.493-3.38 2.136-3.38 1.645 0 2.139 1.644 2.139 3.435 0 2.1-.494 3.58-2.119 3.58Zm3.615-3.562c0-2.576-1.058-4.585-3.562-4.585-2.648 0-3.708 2.156-3.708 4.675 0 2.613 1.06 4.605 3.526 4.605 2.668 0 3.744-2.138 3.744-4.695ZM236.954 26.617c-.037-.054-.055-.108-.11-.108-.109 0-1.059.747-2.246.747-1.772 0-2.101-1.753-2.101-3.415 0-2.082.529-3.416 2.319-3.416 1.079 0 1.863.932 1.936.932.056 0 .074-.055.112-.11l.42-.766c.017-.056.053-.091.053-.148 0-.273-1.405-1.132-2.63-1.132-2.247 0-3.709 1.863-3.709 4.914 0 2.667 1.262 4.366 3.435 4.366 1.352 0 2.887-.75 2.887-.95 0-.055-.036-.09-.056-.146l-.31-.768ZM241.575 16.242a1.12 1.12 0 0 0-1.114-1.115c-.621 0-1.114.494-1.114 1.115s.493 1.114 1.114 1.114c.621 0 1.114-.51 1.114-1.114Zm-.329 3.489c0-.164-.036-.273-.236-.273h-2.577c-.146 0-.217.072-.217.218v.694c0 .146.071.22.217.22h1.426v7.416c0 .146.073.219.22.219h.949c.145 0 .218-.073.218-.22v-8.274ZM248.152 26.217c-.292.254-1.133 1.131-2.084 1.131-.931 0-1.332-.822-1.332-1.553 0-1.919 2.613-1.919 3.416-1.935v2.357Zm1.389-4.458c0-1.535-.713-2.558-2.815-2.558-1.169 0-2.848.53-2.848.841 0 .09.018.146.053.237l.239.64a.134.134 0 0 0 .126.09c.165 0 1.005-.584 2.23-.584 1.296 0 1.626.585 1.626 1.643v.659c-1.133.037-4.785.091-4.785 3.178 0 1.626.929 2.576 2.372 2.576 1.519 0 2.413-1.023 2.632-1.225.091.256.421 1.225.694 1.225.036 0 .073-.019.147-.054l.712-.439c.073-.036.164-.074.164-.147 0-.11-.256-.456-.329-.676-.164-.511-.218-.675-.218-1.826v-3.58ZM257.156 26.872c0-.053-.054-.108-.127-.108-.164 0-.896.492-1.754.492-1.096 0-1.096-.747-1.096-1.479v-5.186h2.412c.108 0 .2-.074.237-.166l.237-.712c0-.054.019-.091.019-.128 0-.11-.09-.127-.202-.127h-2.703v-2.814c0-.108 0-.2-.092-.2-.035 0-.073.018-.127.018l-.969.273c-.127.037-.2.111-.2.219v2.504h-1.37c-.129 0-.129.09-.129.218v.695c0 .09 0 .22.129.22h1.37v5.186c0 .676 0 1.498.529 2.065.274.347.932.639 1.717.639.987 0 2.357-.512 2.357-.749 0-.055-.018-.11-.036-.183l-.202-.677ZM261.211 16.242a1.12 1.12 0 0 0-1.114-1.115c-.62 0-1.114.494-1.114 1.115s.494 1.114 1.114 1.114c.622 0 1.114-.51 1.114-1.114Zm-.326 3.489c0-.164-.039-.273-.239-.273h-2.576c-.145 0-.219.072-.219.218v.694c0 .146.074.22.219.22h1.424v7.416c0 .146.074.219.221.219h.949c.147 0 .221-.073.221-.22v-8.274ZM266.747 27.348c-1.68 0-2.156-1.553-2.156-3.635 0-1.808.493-3.38 2.138-3.38 1.643 0 2.137 1.644 2.137 3.435 0 2.1-.494 3.58-2.119 3.58Zm3.617-3.562c0-2.576-1.061-4.585-3.561-4.585-2.651 0-3.709 2.156-3.709 4.675 0 2.613 1.058 4.605 3.524 4.605 2.668 0 3.746-2.138 3.746-4.695ZM279.26 21.942c0-1.316-.147-2.74-2.175-2.74-1.387 0-2.336.766-2.941 1.241-.018-.145-.235-1.242-.565-1.242-.055 0-.111.055-.146.073l-.823.457c-.073.054-.092.091-.092.127 0 .092.147.22.294.768.074.274.074.476.074 1.078v6.302c0 .146.071.219.218.219h.949c.147 0 .22-.073.22-.22V21.54c.456-.4 1.223-1.114 2.41-1.114.988 0 1.187.694 1.187 1.48v6.1c0 .147.073.22.221.22h.948c.148 0 .221-.073.221-.22v-6.063ZM286.383 20.17c.018-.074.074-.128.074-.183 0-.092-.056-.165-.201-.238-.475-.255-1.536-.548-2.157-.548-1.606 0-2.756 1.06-2.756 2.54 0 2.758 4.053 2.337 4.053 4.238 0 .877-.676 1.314-1.461 1.314-1.24 0-2.192-.64-2.356-.64-.054 0-.109.039-.165.165l-.256.567c-.035.073-.071.127-.071.22 0 .364 1.899.876 2.775.876 1.572 0 2.924-.876 2.924-2.594 0-2.849-4.056-2.284-4.056-4.294 0-.838.62-1.203 1.352-1.203.949 0 1.716.492 1.845.492.11 0 .147-.073.218-.22l.238-.493ZM296.757 16.242a1.12 1.12 0 0 0-1.115-1.115c-.621 0-1.114.494-1.114 1.115s.493 1.114 1.114 1.114c.622 0 1.115-.51 1.115-1.114Zm-.329 3.489c0-.164-.037-.273-.237-.273h-2.578c-.144 0-.217.072-.217.218v.694c0 .146.073.22.217.22h1.426v7.416c0 .146.073.219.22.219h.949c.147 0 .22-.073.22-.22v-8.274ZM306 21.942c0-1.316-.147-2.74-2.175-2.74-1.387 0-2.339.766-2.941 1.241-.018-.145-.236-1.242-.565-1.242-.056 0-.111.055-.147.073l-.822.457c-.073.054-.091.091-.091.127 0 .092.147.22.293.768.073.274.073.476.073 1.078v6.302c0 .146.072.219.218.219h.95c.146 0 .22-.073.22-.22V21.54c.456-.4 1.223-1.114 2.41-1.114.987 0 1.187.694 1.187 1.48v6.1c0 .147.074.22.22.22h.95c.146 0 .22-.073.22-.22v-6.063Z" fill="#005394"></path></svg> 